<svg width="39" height="24" viewBox="0 0 39 24" fill="none" xmlns="http://www.w3.org/2000/svg">
    <path
        d="M37.8578 13.226C38.264 12.8877 38.4907 12.4306 38.4881 11.9553C38.4856 11.4799 38.2539 11.0253 37.8441 10.6913L25.4791 0.617017C25.2774 0.446889 25.0365 0.311619 24.7705 0.219102C24.5045 0.126585 24.2187 0.0786731 23.9297 0.0781617C23.6408 0.0776502 23.3545 0.12455 23.0875 0.216124C22.8206 0.307697 22.5783 0.442111 22.3749 0.611523C22.1715 0.780934 22.011 0.98195 21.9027 1.20284C21.7945 1.42373 21.7407 1.66008 21.7445 1.89808C21.7483 2.13609 21.8096 2.37098 21.9248 2.58907C22.0401 2.80716 22.2069 3.00407 22.4156 3.16831L31.0496 10.2027L2.23088 10.358C1.65373 10.3611 1.10124 10.5529 0.694938 10.8913C0.288644 11.2297 0.0618327 11.6869 0.0643943 12.1623C0.0669559 12.6377 0.29868 13.0924 0.708597 13.4264C1.11852 13.7604 1.67305 13.9463 2.2502 13.9431L31.0689 13.7879L22.5113 20.9149C22.1167 21.2551 21.8998 21.7091 21.9073 22.1791C21.9148 22.6491 22.146 23.0974 22.5513 23.4276C22.9566 23.7578 23.5034 23.9434 24.074 23.9444C24.6446 23.9454 25.1933 23.7618 25.602 23.433L37.8578 13.226Z"
        fill="#fff" />
</svg>