<svg width="24" height="23" viewBox="0 0 24 23" fill="none" xmlns="http://www.w3.org/2000/svg">
    <path fill-rule="evenodd" clip-rule="evenodd"
        d="M10.6589 8.49787C8.43108 6.66657 6.62588 4.4857 5.26936 1.94483C4.99806 1.43874 4.36677 1.24569 3.85547 1.517C3.34938 1.7883 3.1563 2.41962 3.42761 2.93092C4.91978 5.71179 6.89199 8.10136 9.33373 10.1101C9.77721 10.4753 10.4398 10.4127 10.805 9.96918C11.1702 9.52048 11.1024 8.86309 10.6589 8.49787Z"
        fill="#9747FF" />
    <path fill-rule="evenodd" clip-rule="evenodd"
        d="M9.47095 1.36572C9.58573 3.47354 9.6901 5.58137 9.82053 7.6892C9.85706 8.26311 10.3527 8.70137 10.9266 8.66484C11.5005 8.62832 11.9388 8.13267 11.9023 7.55876C11.7718 5.45615 11.6675 3.35355 11.5527 1.24573C11.5214 0.67338 11.0257 0.232508 10.4518 0.264856C9.8779 0.297204 9.43442 0.79024 9.47095 1.36572Z"
        fill="#9747FF" />
    <path fill-rule="evenodd" clip-rule="evenodd"
        d="M17.2167 1.79358C15.8811 3.80749 14.3681 5.66486 12.8446 7.54312C12.4794 7.99182 12.5472 8.64924 12.9959 9.00924C13.4446 9.37446 14.102 9.30661 14.462 8.85791C16.0272 6.9327 17.582 5.0179 18.9594 2.9466C19.2776 2.4666 19.1419 1.81967 18.6619 1.5014C18.1872 1.18314 17.535 1.31358 17.2167 1.79358Z"
        fill="#9747FF" />
    <path fill-rule="evenodd" clip-rule="evenodd"
        d="M22.3906 9.28051C18.7697 9.44225 14.9245 9.44747 11.3036 9.2179C10.7297 9.1866 10.2341 9.61965 10.1975 10.1988C10.161 10.7727 10.5993 11.2683 11.1732 11.3049C14.8671 11.5344 18.7906 11.5292 22.4845 11.3675C23.0584 11.3414 23.5071 10.851 23.481 10.277C23.4549 9.70314 22.9645 9.25442 22.3906 9.28051Z"
        fill="#9747FF" />
    <path fill-rule="evenodd" clip-rule="evenodd"
        d="M9.33102 9.94305C11.5641 12.677 13.8754 15.3587 15.9467 18.2179C16.2858 18.6822 16.938 18.7865 17.4076 18.4474C17.8719 18.1083 17.9763 17.4561 17.6371 16.9917C15.5397 14.1013 13.2024 11.3883 10.9432 8.62304C10.578 8.17956 9.9206 8.11175 9.47712 8.47697C9.02842 8.84218 8.9658 9.49957 9.33102 9.94305Z"
        fill="#9747FF" />
    <path fill-rule="evenodd" clip-rule="evenodd"
        d="M10.0072 10.7363C10.5916 13.585 10.7533 16.3085 10.7951 19.1937C10.8003 19.7677 11.2751 20.2268 11.849 20.2216C12.4281 20.2111 12.8872 19.7415 12.8768 19.1624C12.8351 16.1415 12.6629 13.2981 12.0525 10.3137C11.9325 9.75025 11.3847 9.38501 10.816 9.50501C10.2525 9.61979 9.88724 10.1729 10.0072 10.7363Z"
        fill="#9747FF" />
    <path fill-rule="evenodd" clip-rule="evenodd"
        d="M10.1014 10.5069C8.411 13.8877 7.5397 17.6443 5.72926 20.9521C5.45274 21.453 5.64053 22.0895 6.14661 22.366C6.6527 22.6425 7.28405 22.4547 7.56057 21.9538C9.38144 18.6251 10.2632 14.8477 11.9692 11.4408C12.2249 10.9243 12.0162 10.2982 11.5049 10.0373C10.9884 9.78165 10.3623 9.99036 10.1014 10.5069Z"
        fill="#9747FF" />
    <path fill-rule="evenodd" clip-rule="evenodd"
        d="M11.0317 9.73963C7.66652 10.3344 4.30651 10.6057 0.920427 11.0075C0.346514 11.0753 -0.0604427 11.5918 0.00738335 12.1657C0.0752094 12.7396 0.59178 13.1466 1.16569 13.0788C4.5883 12.677 7.99003 12.3953 11.397 11.7953C11.9605 11.6909 12.3413 11.1483 12.2422 10.5848C12.1379 10.0162 11.6004 9.63528 11.0317 9.73963Z"
        fill="#9747FF" />
    <path fill-rule="evenodd" clip-rule="evenodd"
        d="M13.3967 7.67288C12.7027 7.64158 12.0454 7.59461 11.3671 7.49547C10.7932 7.412 10.2662 7.80852 10.1827 8.37722C10.0993 8.94591 10.4957 9.4781 11.0644 9.56157C11.8157 9.67114 12.541 9.72331 13.3027 9.75462C13.8766 9.7807 14.367 9.33721 14.3879 8.75808C14.414 8.18416 13.9706 7.69897 13.3967 7.67288Z"
        fill="#9747FF" />
</svg>