<svg width="167" height="505" viewBox="0 0 167 505" fill="none" xmlns="http://www.w3.org/2000/svg">
    <path fill-rule="evenodd" clip-rule="evenodd"
        d="M130.305 360.938C113.889 332.341 91.8904 309.591 75.1766 281.142C48.6714 236.025 -13.7909 190.16 4.08625 146.092C21.7263 102.608 101.37 142.065 141.289 118.171C188.131 90.1331 189.932 -1.52201 247.576 0.345465C301.865 2.10423 325.834 79.5663 360.598 125.276C388.91 162.503 417.458 198.26 431.135 241.701C445.874 288.52 479.067 356.801 441.153 381.149C394.646 411.015 319.457 319.481 270.15 345.083C217.942 372.191 263.921 497.722 203.441 504.579C152.005 510.41 157.829 408.885 130.305 360.938Z"
        fill="url(#paint0_linear_2371_1025)" />
    <defs>
        <linearGradient id="paint0_linear_2371_1025" x1="402.25" y1="422.34" x2="58.7442" y2="86.66"
            gradientUnits="userSpaceOnUse">
            <stop stop-color="#9747FF" />
            <stop offset="1" stop-color="#5300E4" />
        </linearGradient>
    </defs>
</svg>