<svg width="196" height="505" viewBox="0 0 196 505" fill="none" xmlns="http://www.w3.org/2000/svg">
    <path fill-rule="evenodd" clip-rule="evenodd"
        d="M-133.189 360.938C-149.605 332.341 -171.603 309.591 -188.317 281.142C-214.823 236.025 -277.285 190.16 -259.408 146.092C-241.768 102.608 -162.124 142.065 -122.205 118.171C-75.3634 90.1331 -73.5618 -1.52201 -15.9178 0.345465C38.371 2.10423 62.3399 79.5663 97.1037 125.276C125.416 162.503 153.964 198.26 167.641 241.701C182.38 288.52 215.573 356.801 177.659 381.149C131.152 411.015 55.9626 319.481 6.65608 345.083C-45.5517 372.191 0.427113 497.722 -60.0533 504.579C-111.489 510.41 -105.665 408.885 -133.189 360.938Z"
        fill="url(#paint0_linear_2452_1417)" />
    <defs>
        <linearGradient id="paint0_linear_2452_1417" x1="138.756" y1="422.34" x2="-204.75"
            y2="86.66" gradientUnits="userSpaceOnUse">
            <stop stop-color="#9747FF" />
            <stop offset="1" stop-color="#5300E4" />
        </linearGradient>
    </defs>
</svg>