<svg width="212" height="260" viewBox="0 0 212 260" fill="none" xmlns="http://www.w3.org/2000/svg">
<g clip-path="url(#clip0_2360_925)">
<path fill-rule="evenodd" clip-rule="evenodd" d="M119.038 167.533C143.338 160.603 166.472 148.921 179.674 129.42C184.522 122.257 187.073 114.046 189.767 105.683C190.003 104.948 189.598 104.157 188.863 103.923C188.13 103.686 187.103 104.823 187.103 104.823C187.103 104.823 182.055 120.909 177.357 127.848C164.356 147.055 141.415 158.372 117.445 165.078C117.328 164.894 117.212 164.708 117.097 164.521C114.559 160.427 108.783 157.002 101.753 154.582C91.5497 151.066 78.7287 149.566 70.126 150.604C66.1572 151.08 63.0461 152.139 61.3246 153.67C59.8889 154.945 59.2621 156.534 59.6068 158.435C59.8944 160.003 60.7196 161.438 62.0146 162.719C63.7438 164.427 66.3488 165.881 69.5172 167.053C81.2403 171.392 100.813 172.017 108.755 170.18C111.243 169.605 113.73 168.984 116.215 168.314C116.967 169.465 117.681 170.567 118.264 171.679C119.119 173.312 119.681 174.952 119.527 176.822C119.243 180.274 117.338 183.137 114.731 185.527C110.559 189.355 104.603 191.976 99.936 193.684C73.6853 203.293 46.9894 196.838 23.6955 186.082C0.136831 175.205 -19.9645 159.907 -32.7127 151.977C-33.3694 151.57 -34.2346 151.771 -34.6406 152.427C-35.0495 153.081 -34.8474 153.945 -34.1925 154.354C-21.374 162.326 -1.1579 177.689 22.521 188.623C46.4648 199.678 73.9166 206.189 100.901 196.313C105.865 194.493 112.182 191.662 116.624 187.59C119.761 184.708 121.973 181.211 122.315 177.056C122.515 174.633 121.847 172.49 120.744 170.382C120.249 169.438 119.662 168.495 119.038 167.533ZM114.624 165.845C112.295 162.238 107.066 159.371 100.842 157.228C91.0375 153.849 78.7262 152.386 70.4593 153.38C67.6897 153.715 65.3962 154.309 63.88 155.249C62.7829 155.927 62.1502 156.785 62.3604 157.933C62.6017 159.253 63.4752 160.389 64.7459 161.406C66.2087 162.58 68.1874 163.579 70.4915 164.43C81.7344 168.591 100.509 169.217 108.123 167.455C110.289 166.952 112.459 166.416 114.624 165.845Z" fill="#9747FF"/>
<path fill-rule="evenodd" clip-rule="evenodd" d="M187.87 101.183C188.306 101.66 188.735 102.422 189.165 103.248C190.139 105.114 190.993 107.335 191.435 108.373C191.74 109.082 192.562 109.414 193.274 109.11C193.985 108.806 194.312 107.982 194.009 107.271C193.467 106.004 192.333 103.062 191.106 100.978C190.475 99.9075 189.789 99.0503 189.161 98.5971C188.543 98.1554 187.952 98.0718 187.394 98.1834C186.806 98.301 186.178 98.7137 185.597 99.4735C184.959 100.309 184.27 101.681 183.324 103.034C182.531 104.171 181.542 105.313 180.141 105.942C179.435 106.258 179.118 107.086 179.436 107.791C179.751 108.493 180.58 108.812 181.283 108.494C183.914 107.316 185.543 104.873 186.744 102.873C187.102 102.277 187.589 101.573 187.87 101.183Z" fill="#9747FF"/>
</g>
<defs>
<clipPath id="clip0_2360_925">
<rect width="184.649" height="184.649" fill="white" transform="translate(-48 143.111) rotate(-50.8092)"/>
</clipPath>
</defs>
</svg>
