<svg width="122" height="182" viewBox="0 0 122 182" fill="none" xmlns="http://www.w3.org/2000/svg">
<g clip-path="url(#clip0_2365_977)">
<path fill-rule="evenodd" clip-rule="evenodd" d="M121.118 7.36945C140.728 68.9567 102.745 122.016 51.9834 154.603C51.1126 155.165 50.8567 156.328 51.4181 157.199C51.9794 158.07 53.1428 158.326 54.0136 157.764C106.199 124.268 144.856 69.5399 124.696 6.22752C124.384 5.24055 123.327 4.6954 122.336 5.00956C121.349 5.32165 120.804 6.37821 121.118 7.36945Z" fill="#9747FF"/>
<path fill-rule="evenodd" clip-rule="evenodd" d="M52.7291 156.971C53.733 154.929 55.0208 152.383 55.1586 152.089C58.8933 144.127 61.2087 135.93 62.433 127.041C62.5332 126.32 62.0435 125.621 61.343 125.483C60.6425 125.344 59.9923 125.82 59.8921 126.541C58.7077 135.161 56.4642 143.111 52.8405 150.834C52.6296 151.285 49.7312 157.007 49.231 158.214C49.0236 158.708 49.0574 159.062 49.0729 159.145C49.1396 159.589 49.3587 159.856 49.5636 160.028C49.7961 160.221 50.2504 160.446 50.8799 160.366C51.5384 160.279 52.8389 159.751 53.1788 159.646C58.3128 158.074 63.8893 155.849 69.4916 154.903C74.8342 154 80.2068 154.261 85.1971 157.599C85.8042 158.006 86.5932 157.837 86.9567 157.225C87.3202 156.614 87.1197 155.786 86.5125 155.379C80.9326 151.648 74.9347 151.265 68.9644 152.273C63.3952 153.214 57.8498 155.379 52.7291 156.971Z" fill="#9747FF"/>
</g>
<defs>
<clipPath id="clip0_2365_977">
<rect width="136.018" height="136.018" fill="white" transform="translate(0 59.5715) rotate(-25.9742)"/>
</clipPath>
</defs>
</svg>
