<svg width="20" height="22" viewBox="0 0 20 22" fill="none" xmlns="http://www.w3.org/2000/svg">
    <path fill-rule="evenodd" clip-rule="evenodd"
        d="M7.905 4.40418C7.84618 4.04883 7.80187 3.69751 7.77324 3.34616C7.7301 2.81912 7.75677 2.28805 7.74148 1.76101C7.73481 1.53742 7.70854 0.954491 7.71912 0.870645C7.8152 0.139978 8.39439 0.0281686 8.56379 0.00820505C8.64575 -0.00377308 9.48728 -0.0995554 9.66884 0.85071C9.89158 2.01259 9.96295 3.18244 9.88413 4.32835C10.068 5.30257 10.3826 6.27278 10.7978 7.15117C12.4503 10.6448 15.5992 10.9842 19.0108 10.9522C19.5355 10.9443 19.9712 11.3635 19.9986 11.8945C20.0261 12.4295 19.6355 12.8927 19.1132 12.9406C17.2062 13.1283 13.8228 14.6854 12.653 16.3065C12.4083 16.6459 12.266 17.4644 12.0778 18.2669C11.815 19.3809 11.5025 20.4829 11.1523 20.946C11.0998 21.0179 10.461 21.7526 10.2704 21.8604C9.81237 22.1159 9.44573 21.9681 9.2375 21.8324C9.02927 21.6966 8.79359 21.4291 8.69948 20.9859C8.60105 20.5228 8.68418 19.5725 8.66889 19.3689C8.6132 18.6302 8.46813 17.1809 8.17206 15.9351C8.01246 15.2644 7.84226 14.6455 7.5607 14.3381C6.51839 13.2001 4.85179 13.3678 3.44832 13.5555C3.28715 13.5755 3.12598 13.5994 2.96521 13.6194C2.39386 13.7911 1.7872 13.9188 1.14605 13.9947C0.177852 14.1105 0.0186539 13.2041 0.0100268 13.1442C-0.00801166 13.0125 -0.0750748 12.3337 0.654699 12.0622C0.734304 12.0343 1.32174 11.9025 1.548 11.8506C1.86328 11.7787 2.18209 11.7229 2.50207 11.6709C5.80743 10.6249 7.60266 7.68619 7.905 4.40418ZM9.03946 8.0336C10.2873 10.6608 12.1809 11.9305 14.4255 12.5054H14.4251C13.0236 13.2521 11.7488 14.1864 11.0731 15.1247C10.8166 15.48 10.5814 16.1947 10.3692 16.9972C10.2543 16.2506 10.099 15.456 9.89395 14.7772C9.66062 14.0027 9.3465 13.3599 8.99593 12.9766C8.31909 12.2379 7.46971 11.8267 6.55642 11.623C7.64971 10.6368 8.4787 9.40709 9.03946 8.0336Z"
        fill="#9747FF" />
</svg>