<svg width="34" height="31" viewBox="0 0 34 31" fill="none" xmlns="http://www.w3.org/2000/svg">
<path fill-rule="evenodd" clip-rule="evenodd" d="M3.07475 12.4334C3.50307 9.73283 3.55343 6.95191 3.5823 4.25658C3.58657 3.67627 3.12781 3.19155 2.56411 3.21599C1.99523 3.19961 1.53145 3.66818 1.52241 4.20763C1.49666 6.81977 1.45754 9.51606 1.04227 12.0909C0.951105 12.6399 1.33337 13.1753 1.89504 13.2754C2.45631 13.3755 2.98317 12.9825 3.07475 12.4334Z" fill="#9747FF"/>
<path fill-rule="evenodd" clip-rule="evenodd" d="M14.4041 19.1441C18.207 14.4341 21.3951 9.25754 25.3227 4.61582C25.6916 4.19999 25.6373 3.5437 25.2051 3.18004C24.7725 2.81643 24.1206 2.85133 23.7565 3.30802C19.8161 7.95122 16.6158 13.1292 12.8003 17.8407C12.446 18.2962 12.5166 18.9504 12.9598 19.3128C13.3979 19.6344 14.0498 19.5996 14.4041 19.1441Z" fill="#9747FF"/>
<path fill-rule="evenodd" clip-rule="evenodd" d="M31.8436 25.1004C29.3999 25.5101 26.9562 25.9196 24.5122 26.3293C23.9492 26.3951 23.5717 26.9364 23.6659 27.5052C23.7605 28.074 24.2875 28.4263 24.8509 28.3605C27.2987 27.9503 29.746 27.5404 32.1933 27.1303C32.7516 27.0236 33.1262 26.4828 33.0287 25.9144C32.936 25.3868 32.4014 24.9938 31.8436 25.1004Z" fill="#9747FF"/>
</svg>
